<?xml version="1.0" encoding="utf-8"?>
<!-- Generator: Adobe Illustrator 21.1.0, SVG Export Plug-In . SVG Version: 6.00 Build 0)  -->
<svg version="1.1" id="Layer_1" xmlns="http://www.w3.org/2000/svg" xmlns:xlink="http://www.w3.org/1999/xlink" x="0px" y="0px"
	 viewBox="0 0 487.2 43.7" style="enable-background:new 0 0 487.2 43.7;" xml:space="preserve">
<g>
	<path d="M2.1,33c0.4,0.3,1.2,0.7,2.5,1.2c1.3,0.5,2.8,0.7,4.5,0.7c1.5,0,2.6-0.2,3.5-0.8c0.9-0.5,1.5-1.3,2-2.3
		c0.5-1,0.8-2.4,0.9-4c0.1-1.6,0.2-3.6,0.2-5.8V0.4h9.8v21.7c0,3.2-0.2,6.2-0.5,8.9c-0.3,2.7-1.1,4.9-2.2,6.8
		c-1.1,1.9-2.8,3.3-5,4.4c-2.2,1-5.1,1.6-8.8,1.6c-3.6,0-6.6-0.9-9.2-2.6L2.1,33z"/>
	<path d="M28,43.1L44.3,0.4h7.9l16.2,42.7H58.1l-3.3-9.6H41.6l-3.2,9.6H28z M48.2,10.8l-5.1,15.9h9.9L48.2,10.8z"/>
	<path d="M74.4,0.4L83.5,20l9.3-19.6h10.6l-15,28.1v14.6h-9.8V28.4l-14.8-28H74.4z"/>
	<path d="M130.7,12.9c-0.2-0.2-0.6-0.5-1.3-0.9c-0.7-0.4-1.6-0.9-2.7-1.4s-2.2-0.9-3.5-1.3c-1.3-0.4-2.5-0.5-3.8-0.5
		c-1.7,0-2.9,0.3-3.8,0.9c-0.9,0.6-1.3,1.5-1.3,2.6c0,0.7,0.2,1.3,0.6,1.8c0.4,0.5,1,0.9,1.7,1.3c0.7,0.4,1.6,0.7,2.7,1.1
		c1.1,0.3,2.4,0.7,3.8,1.1c2,0.6,3.8,1.2,5.5,1.8c1.6,0.7,3,1.5,4.2,2.5c1.2,1,2,2.2,2.6,3.6c0.6,1.4,0.9,3.1,0.9,5.1
		c0,2.4-0.4,4.4-1.3,6.1c-0.9,1.7-2.1,3-3.5,4c-1.5,1-3.2,1.8-5.1,2.2c-1.9,0.5-3.9,0.7-5.9,0.7c-1.5,0-3.1-0.1-4.7-0.4
		c-1.6-0.2-3.2-0.6-4.7-1.1c-1.5-0.5-3.1-1-4.5-1.7c-1.5-0.6-2.8-1.4-4-2.2l4.3-8.6c0.2,0.2,0.7,0.6,1.6,1.1
		c0.9,0.6,1.9,1.1,3.2,1.7c1.3,0.6,2.7,1.1,4.3,1.5c1.6,0.4,3.2,0.7,4.8,0.7c3.5,0,5.2-1.1,5.2-3.2c0-0.8-0.3-1.5-0.8-2
		c-0.5-0.5-1.2-1-2.1-1.4c-0.9-0.4-2-0.8-3.2-1.2c-1.2-0.4-2.6-0.8-4-1.2c-1.9-0.6-3.6-1.3-5.1-2c-1.4-0.7-2.6-1.5-3.6-2.4
		c-1-0.9-1.7-2-2.1-3.2c-0.5-1.2-0.7-2.6-0.7-4.2c0-2.2,0.4-4.2,1.3-6c0.8-1.7,2-3.2,3.4-4.4c1.4-1.2,3.1-2.1,5-2.7
		c1.9-0.6,3.9-0.9,6-0.9c1.5,0,3,0.1,4.4,0.4c1.4,0.3,2.8,0.6,4.1,1.1c1.3,0.4,2.5,0.9,3.7,1.5c1.2,0.6,2.2,1.1,3.1,1.7L130.7,12.9z
		"/>
	<path d="M159.7,43.4c-3,0-5.8-0.6-8.2-1.9c-2.5-1.2-4.6-2.9-6.3-4.9c-1.8-2-3.1-4.3-4.1-6.9c-1-2.6-1.5-5.3-1.5-8.1
		c0-2.8,0.5-5.5,1.5-8.1c1-2.6,2.4-4.9,4.2-6.9c1.8-2,3.9-3.6,6.4-4.8c2.5-1.2,5.2-1.8,8.1-1.8c3,0,5.8,0.6,8.2,1.9
		c2.5,1.2,4.6,2.9,6.3,4.9c1.8,2,3.1,4.4,4.1,7c1,2.6,1.4,5.3,1.4,7.9c0,2.8-0.5,5.5-1.5,8.1c-1,2.6-2.4,4.9-4.2,6.9
		c-1.8,2-3.9,3.6-6.4,4.8C165.3,42.8,162.6,43.4,159.7,43.4z M149.5,21.8c0,1.6,0.2,3.2,0.7,4.8c0.5,1.5,1.1,2.9,2,4.1
		c0.9,1.2,1.9,2.2,3.2,2.9c1.3,0.7,2.8,1.1,4.4,1.1c1.7,0,3.2-0.4,4.5-1.1c1.3-0.8,2.3-1.8,3.2-3c0.9-1.2,1.5-2.6,1.9-4.1
		c0.4-1.5,0.6-3.1,0.6-4.7c0-1.6-0.2-3.2-0.7-4.8c-0.5-1.5-1.1-2.9-2-4.1c-0.9-1.2-1.9-2.1-3.2-2.8c-1.3-0.7-2.7-1.1-4.3-1.1
		c-1.7,0-3.2,0.4-4.5,1.1c-1.3,0.7-2.3,1.7-3.2,2.9c-0.9,1.2-1.5,2.6-1.9,4.1C149.7,18.6,149.5,20.2,149.5,21.8z"/>
	<path d="M195.4,18.6v24.4h-9.8V0.4h7.6L213,25.4V0.4h9.8v42.7h-7.9L195.4,18.6z"/>
	<path d="M281.1,0.4v42.7h-9.8V25.6h-16.9v17.5h-9.8V0.4h9.8v16.5h16.9V0.4H281.1z"/>
	<path d="M307.3,34.6c1.7,0,3.1-0.4,4.2-1.1c1.2-0.7,2.1-1.6,2.8-2.8c0.7-1.2,1.2-2.5,1.5-4c0.3-1.5,0.4-3,0.4-4.6V0.4h9.8v21.8
		c0,3-0.4,5.7-1.1,8.3c-0.7,2.6-1.9,4.8-3.4,6.7c-1.5,1.9-3.5,3.4-5.8,4.5c-2.4,1.1-5.2,1.7-8.4,1.7c-3.4,0-6.3-0.6-8.6-1.7
		c-2.4-1.2-4.3-2.7-5.8-4.7c-1.5-1.9-2.6-4.2-3.3-6.8c-0.7-2.6-1-5.3-1-8.1V0.4h9.8v21.8c0,1.6,0.2,3.2,0.5,4.7
		c0.3,1.5,0.8,2.8,1.5,4c0.7,1.2,1.6,2.1,2.8,2.8C304.2,34.3,305.6,34.6,307.3,34.6z"/>
	<path d="M343.3,18.6v24.4h-9.8V0.4h7.6l19.7,25.1V0.4h9.8v42.7h-7.9L343.3,18.6z"/>
	<path d="M411,9h-12.9v34h-9.8V9h-12.9V0.4H411V9z"/>
	<path d="M445.5,34.4v8.7h-29.7V0.4H445V9h-19.4v8.3h16.7v8h-16.7v9.1H445.5z"/>
	<path d="M451.6,43.1V0.4h19.1c2,0,3.8,0.4,5.5,1.3c1.7,0.8,3.1,1.9,4.4,3.3c1.2,1.4,2.2,2.9,2.9,4.6c0.7,1.7,1,3.5,1,5.2
		c0,1.3-0.2,2.6-0.5,3.8c-0.3,1.2-0.8,2.4-1.4,3.5c-0.6,1.1-1.3,2.1-2.2,2.9c-0.9,0.9-1.8,1.6-2.9,2.2l9.7,15.9h-11l-8.5-13.8h-6.4
		v13.8H451.6z M461.3,20.7h8.9c1.2,0,2.1-0.6,3-1.7c0.8-1.1,1.2-2.5,1.2-4.2c0-1.8-0.5-3.2-1.4-4.2c-1-1-2-1.6-3.1-1.6h-8.6V20.7z"
		/>
</g>
</svg>
