<?xml version="1.0" encoding="utf-8"?>
<!-- Generator: Adobe Illustrator 20.1.0, SVG Export Plug-In . SVG Version: 6.00 Build 0)  -->
<svg version="1.1" id="Layer_1" xmlns="http://www.w3.org/2000/svg" xmlns:xlink="http://www.w3.org/1999/xlink" x="0px" y="0px"
	 width="22px" height="32px" viewBox="0 0 22 32" enable-background="new 0 0 22 32" xml:space="preserve">
<path id="Arrow_Forward" fill="#121313" d="M11,32c0.3,0,0.5-0.1,0.7-0.3l10-9.9c0.4-0.4,0.4-1,0-1.4c-0.4-0.4-1-0.4-1.4,0L12,28.6
	L12,1c0-0.6-0.5-1-1-1s-1,0.4-1,1l0,27.6l-8.3-8.2c-0.4-0.4-1-0.4-1.4,0c-0.4,0.4-0.4,1,0,1.4l10,9.9C10.5,31.9,10.7,32,11,32z"/>
</svg>
