<?xml version="1.0" encoding="UTF-8" standalone="no"?>
<svg width="22px" height="32px" viewBox="0 0 22 32" version="1.1" xmlns="http://www.w3.org/2000/svg" xmlns:xlink="http://www.w3.org/1999/xlink">
    <!-- Generator: Sketch 41.1 (35376) - http://www.bohemiancoding.com/sketch -->
    <title>icon - arrow - black - up</title>
    <desc>Created with Sketch.</desc>
    <defs></defs>
    <g id="Page-1" stroke="none" stroke-width="1" fill="none" fill-rule="evenodd">
        <path d="M11,32 C11.3,32 11.5,31.9 11.7,31.7 L21.7,21.8 C22.1,21.4 22.1,20.8 21.7,20.4 C21.3,20 20.7,20 20.3,20.4 L12,28.6 L12,1 C12,0.4 11.5,-7.10542736e-15 11,-7.10542736e-15 C10.5,-7.10542736e-15 10,0.4 10,1 L10,28.6 L1.7,20.4 C1.3,20 0.7,20 0.3,20.4 C-0.1,20.8 -0.1,21.4 0.3,21.8 L10.3,31.7 C10.5,31.9 10.7,32 11,32 Z" id="icon---arrow---black---up" fill="#121313" transform="translate(11.000000, 16.000000) rotate(-180.000000) translate(-11.000000, -16.000000) "></path>
    </g>
</svg>