<?xml version="1.0" encoding="UTF-8" standalone="no"?>
<svg width="32px" height="32px" viewBox="0 0 32 32" version="1.1" xmlns="http://www.w3.org/2000/svg" xmlns:xlink="http://www.w3.org/1999/xlink">
    <!-- Generator: Sketch 41.1 (35376) - http://www.bohemiancoding.com/sketch -->
    <title>icon - dribbble</title>
    <desc>Created with Sketch.</desc>
    <defs></defs>
    <g id="Page-1" stroke="none" stroke-width="1" fill="none" fill-rule="evenodd">
        <g id="icon---dribbble">
            <rect id="Rectangle" x="0" y="0" width="32" height="32"></rect>
            <path d="M20,25.4375 C19.5624978,22.9270708 18.8333384,20.3333467 17.8125,17.65625 L17.78125,17.65625 L17.75,17.671875 C17.5833325,17.7343753 17.3593764,17.820312 17.078125,17.9296875 C16.7968736,18.039063 16.2708372,18.2942688 15.5,18.6953125 C14.7291628,19.0963562 14.0156283,19.5234352 13.359375,19.9765625 C12.7031217,20.4296898 12.0208369,21.026038 11.3125,21.765625 C10.6041631,22.505212 10.0677102,23.2760377 9.703125,24.078125 L9.46875,23.90625 C11.3854263,25.4687578 13.5624878,26.25 16,26.25 C17.3750069,26.25 18.7083269,25.9791694 20,25.4375 Z M17.109375,15.953125 C16.8906239,15.4427058 16.614585,14.8645866 16.28125,14.21875 C13.0416505,15.1875048 9.53647719,15.671875 5.765625,15.671875 C5.75520828,15.744792 5.75,15.8541659 5.75,16 C5.75,17.2916731 5.97916437,18.5234316 6.4375,19.6953125 C6.89583563,20.8671934 7.5416625,21.916662 8.375,22.84375 C8.89583594,21.916662 9.53905867,21.0494832 10.3046875,20.2421875 C11.0703163,19.4348918 11.8124964,18.7864608 12.53125,18.296875 C13.2500036,17.8072892 13.9296843,17.3854184 14.5703125,17.03125 C15.2109407,16.6770816 15.7291647,16.4270841 16.125,16.28125 L16.703125,16.078125 C16.7447919,16.0677083 16.8124995,16.0494793 16.90625,16.0234375 C17.0000005,15.9973957 17.0677081,15.9739584 17.109375,15.953125 Z M15.4375,12.640625 C14.1874937,10.4218639 12.9166731,8.45313359 11.625,6.734375 C10.1874928,7.41146172 8.968755,8.38020203 7.96875,9.640625 C6.968745,10.901048 6.302085,12.3177005 5.96875,13.890625 C9.11459906,13.890625 12.2708175,13.4739625 15.4375,12.640625 Z M26.125,17.625 C23.9374891,16.9999969 21.807302,16.8489567 19.734375,17.171875 C20.6406295,19.6614708 21.3072895,22.1041547 21.734375,24.5 C22.8906308,23.7187461 23.8541628,22.7317768 24.625,21.5390625 C25.3958372,20.3463482 25.8958322,19.0416738 26.125,17.625 Z M13.546875,6.046875 C13.5364583,6.046875 13.5260417,6.05208328 13.515625,6.0625 C13.5260417,6.05208328 13.5364583,6.046875 13.546875,6.046875 Z M22.765625,8.3125 C20.838532,6.60415812 18.5833462,5.75 16,5.75 C15.2083294,5.75 14.4010458,5.84895734 13.578125,6.046875 C14.9427152,7.81771719 16.2239523,9.80728063 17.421875,12.015625 C18.1406286,11.7447903 18.8177052,11.4296893 19.453125,11.0703125 C20.0885448,10.7109357 20.591144,10.3906264 20.9609375,10.109375 C21.330731,9.82812359 21.6718734,9.53125156 21.984375,9.21875 C22.2968766,8.90624844 22.4921871,8.69531305 22.5703125,8.5859375 L22.765625,8.3125 Z M26.25,15.890625 C26.2187498,13.4739463 25.4427159,11.3385509 23.921875,9.484375 L23.90625,9.5 C23.8124995,9.62500063 23.7135422,9.75260352 23.609375,9.8828125 C23.5052078,10.0130215 23.2786476,10.24479 22.9296875,10.578125 C22.5807274,10.91146 22.2109395,11.226561 21.8203125,11.5234375 C21.4296855,11.820314 20.9088574,12.1588523 20.2578125,12.5390625 C19.6067676,12.9192727 18.9218786,13.2552069 18.203125,13.546875 C18.463543,14.0989611 18.6927073,14.5937478 18.890625,15.03125 C18.9114584,15.0937503 18.9453123,15.1848952 18.9921875,15.3046875 C19.0390627,15.4244798 19.0781248,15.5104164 19.109375,15.5625 C19.4843769,15.5104164 19.8723938,15.4739584 20.2734375,15.453125 C20.6744812,15.4322916 21.0572898,15.421875 21.421875,15.421875 C21.7864602,15.421875 22.1458316,15.4296874 22.5,15.4453125 C22.8541684,15.4609376 23.1874984,15.4817707 23.5,15.5078125 C23.8125016,15.5338543 24.1067695,15.5624998 24.3828125,15.59375 C24.6588555,15.6250002 24.908853,15.658854 25.1328125,15.6953125 C25.356772,15.731771 25.5468742,15.7630207 25.703125,15.7890625 C25.8593758,15.8151043 25.9895828,15.8385416 26.09375,15.859375 L26.25,15.890625 Z M28,16 C28,18.1770942 27.463547,20.1848866 26.390625,22.0234375 C25.317703,23.8619884 23.8619884,25.317703 22.0234375,26.390625 C20.1848866,27.463547 18.1770942,28 16,28 C13.8229058,28 11.8151134,27.463547 9.9765625,26.390625 C8.13801164,25.317703 6.68229703,23.8619884 5.609375,22.0234375 C4.53645297,20.1848866 4,18.1770942 4,16 C4,13.8229058 4.53645297,11.8151134 5.609375,9.9765625 C6.68229703,8.13801164 8.13801164,6.68229703 9.9765625,5.609375 C11.8151134,4.53645297 13.8229058,4 16,4 C18.1770942,4 20.1848866,4.53645297 22.0234375,5.609375 C23.8619884,6.68229703 25.317703,8.13801164 26.390625,9.9765625 C27.463547,11.8151134 28,13.8229058 28,16 Z" id="" fill="#FFFFFF"></path>
        </g>
    </g>
</svg>