<?xml version="1.0" encoding="UTF-8" standalone="no"?>
<svg width="32px" height="32px" viewBox="0 0 32 32" version="1.1" xmlns="http://www.w3.org/2000/svg" xmlns:xlink="http://www.w3.org/1999/xlink">
    <!-- Generator: Sketch 41.1 (35376) - http://www.bohemiancoding.com/sketch -->
    <title>icon - linkedin</title>
    <desc>Created with Sketch.</desc>
    <defs></defs>
    <g id="Page-1" stroke="none" stroke-width="1" fill="none" fill-rule="evenodd">
        <g id="icon---linkedin">
            <rect id="Rectangle" x="0" y="0" width="32" height="32"></rect>
            <path d="M9.453125,12.453125 L9.453125,27.9375 L4.296875,27.9375 L4.296875,12.453125 L9.453125,12.453125 Z M9.78125,7.671875 C9.79166672,8.43229547 9.52864852,9.06770578 8.9921875,9.578125 C8.45572648,10.0885442 7.75000437,10.34375 6.875,10.34375 L6.84375,10.34375 C5.98957906,10.34375 5.30208594,10.0885442 4.78125,9.578125 C4.26041406,9.06770578 4,8.43229547 4,7.671875 C4,6.90103781 4.26822648,6.26302336 4.8046875,5.7578125 C5.34114852,5.25260164 6.04166234,5 6.90625,5 C7.77083766,5 8.46353906,5.25260164 8.984375,5.7578125 C9.50521094,6.26302336 9.77083328,6.90103781 9.78125,7.671875 Z M17.4375,14.6534991 C17.6359246,14.340764 17.8390478,14.0656418 18.046875,13.828125 C18.2656261,13.5781237 18.559894,13.3072931 18.9296875,13.015625 C19.299481,12.7239569 19.7526015,12.4973966 20.2890625,12.3359375 C20.8255235,12.1744784 21.4218717,12.09375 22.078125,12.09375 C23.8593839,12.09375 25.2916612,12.6848899 26.375,13.8671875 C27.4583388,15.0494851 28,16.7812386 28,19.0625 L28,27.9375 L22.859375,27.9375 L22.859375,19.65625 C22.859375,18.5624945 22.6484396,17.7057323 22.2265625,17.0859375 C21.8046854,16.4661427 21.1458378,16.15625 20.25,16.15625 C19.5937467,16.15625 19.044273,16.3359357 18.6015625,16.6953125 C18.158852,17.0546893 17.8281261,17.4999973 17.609375,18.03125 C17.4947911,18.3437516 17.4375,18.7656223 17.4375,19.296875 L17.4375,27.9375 L12.296875,27.9375 C12.3177084,23.7812292 12.328125,20.4114712 12.328125,17.828125 C12.328125,15.2447787 12.3229167,13.7031275 12.3125,13.203125 L12.296875,12.453125 L17.4375,12.453125 L17.4375,14.6534991 L17.4375,14.6534991 Z" id="" fill="#FFFFFF"></path>
        </g>
    </g>
</svg>