<?xml version="1.0" encoding="UTF-8" standalone="no"?>
<svg width="32px" height="22px" viewBox="0 0 32 22" version="1.1" xmlns="http://www.w3.org/2000/svg" xmlns:xlink="http://www.w3.org/1999/xlink">
    <!-- Generator: Sketch 41.1 (35376) - http://www.bohemiancoding.com/sketch -->
    <title>icon - arrow - black - left</title>
    <desc>Created with Sketch.</desc>
    <defs></defs>
    <g id="Page-1" stroke="none" stroke-width="1" fill="none" fill-rule="evenodd">
        <path d="M16,27 C16.3,27 16.5,26.9 16.7,26.7 L26.7,16.8 C27.1,16.4 27.1,15.8 26.7,15.4 C26.3,15 25.7,15 25.3,15.4 L17,23.6 L17,-4 C17,-4.6 16.5,-5 16,-5 C15.5,-5 15,-4.6 15,-4 L15,23.6 L6.7,15.4 C6.3,15 5.7,15 5.3,15.4 C4.9,15.8 4.9,16.4 5.3,16.8 L15.3,26.7 C15.5,26.9 15.7,27 16,27 Z" id="icon---arrow---black---left" fill="#121313" transform="translate(16.000000, 11.000000) rotate(-270.000000) translate(-16.000000, -11.000000) "></path>
    </g>
</svg>