<?xml version="1.0" encoding="UTF-8" standalone="no"?>
<svg width="32px" height="32px" viewBox="0 0 32 32" version="1.1" xmlns="http://www.w3.org/2000/svg" xmlns:xlink="http://www.w3.org/1999/xlink">
    <!-- Generator: Sketch 41.1 (35376) - http://www.bohemiancoding.com/sketch -->
    <title>icon - medium</title>
    <desc>Created with Sketch.</desc>
    <defs></defs>
    <g id="Page-1" stroke="none" stroke-width="1" fill="none" fill-rule="evenodd">
        <g id="icon---medium">
            <rect id="Rectangle" x="0" y="0" width="32" height="32"></rect>
            <path d="M11.328125,8.421875 L11.328125,26.75 C11.328125,27.010418 11.2630215,27.2317699 11.1328125,27.4140625 C11.0026035,27.5963551 10.8125013,27.6875 10.5625,27.6875 C10.3854158,27.6875 10.2135425,27.6458338 10.046875,27.5625 L2.78125,23.921875 C2.56249891,23.8177078 2.37760492,23.6432304 2.2265625,23.3984375 C2.07552008,23.1536446 2,22.9114595 2,22.671875 L2,4.859375 C2,4.65104063 2.05208281,4.47395906 2.15625,4.328125 C2.26041719,4.18229094 2.41145734,4.109375 2.609375,4.109375 C2.75520906,4.109375 2.98437344,4.18749922 3.296875,4.34375 L11.28125,8.34375 C11.3125002,8.37500016 11.328125,8.40104156 11.328125,8.421875 Z M12.328125,10 L20.671875,23.53125 L12.328125,19.375 L12.328125,10 Z M30,10.28125 L30,26.75 C30,27.010418 29.9270841,27.2213534 29.78125,27.3828125 C29.6354159,27.5442716 29.4375013,27.625 29.1875,27.625 C28.9374987,27.625 28.6927095,27.5572923 28.453125,27.421875 L21.5625,23.984375 L30,10.28125 Z M29.953125,8.40625 C29.953125,8.43750016 28.6172009,10.6223741 25.9453125,14.9609375 C23.2734241,19.2995009 21.7083356,21.838538 21.25,22.578125 L15.15625,12.671875 L20.21875,4.4375 C20.3958342,4.14583187 20.6666648,4 21.03125,4 C21.1770841,4 21.3124994,4.03124969 21.4375,4.09375 L29.890625,8.3125 C29.9322919,8.33333344 29.953125,8.36458312 29.953125,8.40625 Z" id="" fill="#FFFFFF"></path>
        </g>
    </g>
</svg>