<?xml version="1.0" encoding="UTF-8" standalone="no"?>
<svg width="32px" height="32px" viewBox="0 0 32 32" version="1.1" xmlns="http://www.w3.org/2000/svg" xmlns:xlink="http://www.w3.org/1999/xlink">
    <!-- Generator: Sketch 41.1 (35376) - http://www.bohemiancoding.com/sketch -->
    <title>icon - twitter</title>
    <desc>Created with Sketch.</desc>
    <defs></defs>
    <g id="Page-1" stroke="none" stroke-width="1" fill="none" fill-rule="evenodd">
        <g id="icon---twitter">
            <rect id="Rectangle" x="0" y="0" width="32" height="32"></rect>
            <path d="M28.625,8.375 C27.9270798,9.39583844 27.0833383,10.2656214 26.09375,10.984375 C26.1041667,11.1302091 26.109375,11.3489569 26.109375,11.640625 C26.109375,12.9947984 25.9114603,14.3463474 25.515625,15.6953125 C25.1197897,17.0442776 24.5182332,18.3385355 23.7109375,19.578125 C22.9036418,20.8177145 21.9427139,21.9140577 20.828125,22.8671875 C19.7135361,23.8203173 18.3697995,24.5807263 16.796875,25.1484375 C15.2239505,25.7161487 13.5416756,26 11.75,26 C8.92706922,26 6.34376172,25.2447992 4,23.734375 C4.36458516,23.7760419 4.77083109,23.796875 5.21875,23.796875 C7.56251172,23.796875 9.6510325,23.0781322 11.484375,21.640625 C10.3906195,21.6197916 9.41146266,21.2838574 8.546875,20.6328125 C7.68228734,19.9817676 7.08854328,19.1510467 6.765625,18.140625 C7.10937672,18.1927086 7.42708187,18.21875 7.71875,18.21875 C8.16666891,18.21875 8.60937281,18.1614589 9.046875,18.046875 C7.8802025,17.8072905 6.91406633,17.2265671 6.1484375,16.3046875 C5.38280867,15.3828079 5,14.3125061 5,13.09375 L5,13.03125 C5.70833687,13.4270853 6.46874594,13.6406248 7.28125,13.671875 C6.59374656,13.2135394 6.04687703,12.614587 5.640625,11.875 C5.23437297,11.135413 5.03125,10.3333377 5.03125,9.46875 C5.03125,8.55207875 5.26041437,7.70312891 5.71875,6.921875 C6.97917297,8.47396609 8.5130118,9.71614117 10.3203125,10.6484375 C12.1276132,11.5807338 14.0624897,12.0989578 16.125,12.203125 C16.0416662,11.8072897 16,11.4218769 16,11.046875 C16,9.65103469 16.4921826,8.46094242 17.4765625,7.4765625 C18.4609424,6.49218258 19.6510347,6 21.046875,6 C22.5052156,6 23.73437,6.53124469 24.734375,7.59375 C25.8697973,7.37499891 26.937495,6.96875297 27.9375,6.375 C27.5520814,7.57292266 26.8125055,8.49999672 25.71875,9.15625 C26.6875048,9.05208281 27.6562452,8.79166875 28.625,8.375 Z" id="" fill="#FFFFFF"></path>
        </g>
    </g>
</svg>