<?xml version="1.0" encoding="UTF-8" standalone="no"?>
<svg width="32px" height="32px" viewBox="0 0 32 32" version="1.1" xmlns="http://www.w3.org/2000/svg" xmlns:xlink="http://www.w3.org/1999/xlink">
    <!-- Generator: Sketch 41.1 (35376) - http://www.bohemiancoding.com/sketch -->
    <title>icon - instagram</title>
    <desc>Created with Sketch.</desc>
    <defs></defs>
    <g id="Page-1" stroke="none" stroke-width="1" fill="none" fill-rule="evenodd">
        <g id="icon---instagram">
            <rect id="Rectangle" x="0" y="0" width="32" height="32"></rect>
            <path d="M20,16 C20,14.8958278 19.6093789,13.9531289 18.828125,13.171875 C18.0468711,12.3906211 17.1041722,12 16,12 C14.8958278,12 13.9531289,12.3906211 13.171875,13.171875 C12.3906211,13.9531289 12,14.8958278 12,16 C12,17.1041722 12.3906211,18.0468711 13.171875,18.828125 C13.9531289,19.6093789 14.8958278,20 16,20 C17.1041722,20 18.0468711,19.6093789 18.828125,18.828125 C19.6093789,18.0468711 20,17.1041722 20,16 Z M22.15625,16 C22.15625,17.7083419 21.5572977,19.1614523 20.359375,20.359375 C19.1614523,21.5572977 17.7083419,22.15625 16,22.15625 C14.2916581,22.15625 12.8385477,21.5572977 11.640625,20.359375 C10.4427023,19.1614523 9.84375,17.7083419 9.84375,16 C9.84375,14.2916581 10.4427023,12.8385477 11.640625,11.640625 C12.8385477,10.4427023 14.2916581,9.84375 16,9.84375 C17.7083419,9.84375 19.1614523,10.4427023 20.359375,11.640625 C21.5572977,12.8385477 22.15625,14.2916581 22.15625,16 Z M23.84375,9.59375 C23.84375,9.98958531 23.7031264,10.3281236 23.421875,10.609375 C23.1406236,10.8906264 22.8020853,11.03125 22.40625,11.03125 C22.0104147,11.03125 21.6718764,10.8906264 21.390625,10.609375 C21.1093736,10.3281236 20.96875,9.98958531 20.96875,9.59375 C20.96875,9.19791469 21.1093736,8.85937641 21.390625,8.578125 C21.6718764,8.29687359 22.0104147,8.15625 22.40625,8.15625 C22.8020853,8.15625 23.1406236,8.29687359 23.421875,8.578125 C23.7031264,8.85937641 23.84375,9.19791469 23.84375,9.59375 Z M16,6.15625 C15.927083,6.15625 15.5286495,6.15364586 14.8046875,6.1484375 C14.0807255,6.14322914 13.5312519,6.14322914 13.15625,6.1484375 C12.7812481,6.15364586 12.278649,6.1692707 11.6484375,6.1953125 C11.018226,6.2213543 10.481773,6.27343711 10.0390625,6.3515625 C9.59635195,6.42968789 9.22395984,6.52604109 8.921875,6.640625 C8.40103906,6.84895938 7.94271031,7.15103969 7.546875,7.546875 C7.15103969,7.94271031 6.84895938,8.40103906 6.640625,8.921875 C6.52604109,9.22395984 6.42968789,9.59635195 6.3515625,10.0390625 C6.27343711,10.481773 6.2213543,11.018226 6.1953125,11.6484375 C6.1692707,12.278649 6.15364586,12.7812481 6.1484375,13.15625 C6.14322914,13.5312519 6.14322914,14.0807255 6.1484375,14.8046875 C6.15364586,15.5286495 6.15625,15.927083 6.15625,16 C6.15625,16.072917 6.15364586,16.4713505 6.1484375,17.1953125 C6.14322914,17.9192745 6.14322914,18.4687481 6.1484375,18.84375 C6.15364586,19.2187519 6.1692707,19.721351 6.1953125,20.3515625 C6.2213543,20.981774 6.27343711,21.518227 6.3515625,21.9609375 C6.42968789,22.403648 6.52604109,22.7760402 6.640625,23.078125 C6.84895938,23.5989609 7.15103969,24.0572897 7.546875,24.453125 C7.94271031,24.8489603 8.40103906,25.1510406 8.921875,25.359375 C9.22395984,25.4739589 9.59635195,25.5703121 10.0390625,25.6484375 C10.481773,25.7265629 11.018226,25.7786457 11.6484375,25.8046875 C12.278649,25.8307293 12.7812481,25.8463541 13.15625,25.8515625 C13.5312519,25.8567709 14.0807255,25.8567709 14.8046875,25.8515625 C15.5286495,25.8463541 15.927083,25.84375 16,25.84375 C16.072917,25.84375 16.4713505,25.8463541 17.1953125,25.8515625 C17.9192745,25.8567709 18.4687481,25.8567709 18.84375,25.8515625 C19.2187519,25.8463541 19.721351,25.8307293 20.3515625,25.8046875 C20.981774,25.7786457 21.518227,25.7265629 21.9609375,25.6484375 C22.403648,25.5703121 22.7760402,25.4739589 23.078125,25.359375 C23.5989609,25.1510406 24.0572897,24.8489603 24.453125,24.453125 C24.8489603,24.0572897 25.1510406,23.5989609 25.359375,23.078125 C25.4739589,22.7760402 25.5703121,22.403648 25.6484375,21.9609375 C25.7265629,21.518227 25.7786457,20.981774 25.8046875,20.3515625 C25.8307293,19.721351 25.8463541,19.2187519 25.8515625,18.84375 C25.8567709,18.4687481 25.8567709,17.9192745 25.8515625,17.1953125 C25.8463541,16.4713505 25.84375,16.072917 25.84375,16 C25.84375,15.927083 25.8463541,15.5286495 25.8515625,14.8046875 C25.8567709,14.0807255 25.8567709,13.5312519 25.8515625,13.15625 C25.8463541,12.7812481 25.8307293,12.278649 25.8046875,11.6484375 C25.7786457,11.018226 25.7265629,10.481773 25.6484375,10.0390625 C25.5703121,9.59635195 25.4739589,9.22395984 25.359375,8.921875 C25.1510406,8.40103906 24.8489603,7.94271031 24.453125,7.546875 C24.0572897,7.15103969 23.5989609,6.84895938 23.078125,6.640625 C22.7760402,6.52604109 22.403648,6.42968789 21.9609375,6.3515625 C21.518227,6.27343711 20.981774,6.2213543 20.3515625,6.1953125 C19.721351,6.1692707 19.2187519,6.15364586 18.84375,6.1484375 C18.4687481,6.14322914 17.9192745,6.14322914 17.1953125,6.1484375 C16.4713505,6.15364586 16.072917,6.15625 16,6.15625 Z M28,16 C28,18.3854286 27.9739586,20.0364537 27.921875,20.953125 C27.8177078,23.1198025 27.1718809,24.7968691 25.984375,25.984375 C24.7968691,27.1718809 23.1198025,27.8177078 20.953125,27.921875 C20.0364537,27.9739586 18.3854286,28 16,28 C13.6145714,28 11.9635463,27.9739586 11.046875,27.921875 C8.8801975,27.8177078 7.20313094,27.1718809 6.015625,25.984375 C4.82811906,24.7968691 4.18229219,23.1198025 4.078125,20.953125 C4.02604141,20.0364537 4,18.3854286 4,16 C4,13.6145714 4.02604141,11.9635463 4.078125,11.046875 C4.18229219,8.8801975 4.82811906,7.20313094 6.015625,6.015625 C7.20313094,4.82811906 8.8801975,4.18229219 11.046875,4.078125 C11.9635463,4.02604141 13.6145714,4 16,4 C18.3854286,4 20.0364537,4.02604141 20.953125,4.078125 C23.1198025,4.18229219 24.7968691,4.82811906 25.984375,6.015625 C27.1718809,7.20313094 27.8177078,8.8801975 27.921875,11.046875 C27.9739586,11.9635463 28,13.6145714 28,16 Z" id="" fill="#FFFFFF"></path>
        </g>
    </g>
</svg>