<?xml version="1.0" encoding="UTF-8" standalone="no"?>
<svg width="32px" height="32px" viewBox="0 0 32 32" version="1.1" xmlns="http://www.w3.org/2000/svg" xmlns:xlink="http://www.w3.org/1999/xlink">
    <!-- Generator: Sketch 41.1 (35376) - http://www.bohemiancoding.com/sketch -->
    <title>icon - facebook</title>
    <desc>Created with Sketch.</desc>
    <defs></defs>
    <g id="Page-1" stroke="none" stroke-width="1" fill="none" fill-rule="evenodd">
        <g id="icon---facebook">
            <rect id="Rectangle" x="0" y="0" width="32" height="32"></rect>
            <path d="M22.5,3.1875 L22.5,7.3125 L20.046875,7.3125 C19.1510372,7.3125 18.5468766,7.49999813 18.234375,7.875 C17.9218734,8.25000187 17.765625,8.81249625 17.765625,9.5625 L17.765625,12.515625 L22.34375,12.515625 L21.734375,17.140625 L17.765625,17.140625 L17.765625,29 L12.984375,29 L12.984375,17.140625 L9,17.140625 L9,12.515625 L12.984375,12.515625 L12.984375,9.109375 C12.984375,7.17186531 13.5260363,5.66927617 14.609375,4.6015625 C15.6927137,3.53384883 17.1354077,3 18.9375,3 C20.4687577,3 21.6562458,3.06249938 22.5,3.1875 Z" id="" fill="#FFFFFF"></path>
        </g>
    </g>
</svg>